# xmcd CD database file
#
# Track frame offsets:
#	150
#	22383
#	57068
#	83257
#	109776
#	135317
#	152048
#	182785
#	198548
#	230566
#	251591
#	274150
#	300554
#
# Disc length: 4416 seconds
#
# Revision: 0
# Processed by: cddbd v1.5.1PL0 Copyright (c) Steve Scherf et al.
# Submitted via: CDex 1.51
#
DISCID=a9113e0d
DTITLE=Mr.Children - 2000 Best 1[CD3]
DYEAR=1900
DGENRE=Japanese Pop
TTITLE0=Not Found
TTITLE1=1999年、夏、沖縄
TTITLE2=口笛
TTITLE3=Heavenly Kiss
TTITLE4=I'll Be
TTITLE5=Surrender
TTITLE6=光の射す方へ
TTITLE7=独り言
TTITLE8=終わり無き旅
TTITLE9=Prism
TTITLE10=ニシエヒガシエ
TTITLE11=ニシエヒガシエ East
TTITLE12=ニシエヒガシエ West
EXTD=
EXTT0=
EXTT1=
EXTT2=
EXTT3=
EXTT4=
EXTT5=
EXTT6=
EXTT7=
EXTT8=
EXTT9=
EXTT10=
EXTT11=
EXTT12=
PLAYORDER=
